<?xml version="1.0" encoding="UTF-8" standalone="no"?>
<!-- Created with Inkscape (http://www.inkscape.org/) -->

<svg
   xmlns:dc="http://purl.org/dc/elements/1.1/"
   xmlns:cc="http://creativecommons.org/ns#"
   xmlns:rdf="http://www.w3.org/1999/02/22-rdf-syntax-ns#"
   xmlns:svg="http://www.w3.org/2000/svg"
   xmlns="http://www.w3.org/2000/svg"
   xmlns:sodipodi="http://sodipodi.sourceforge.net/DTD/sodipodi-0.dtd"
   xmlns:inkscape="http://www.inkscape.org/namespaces/inkscape"
   width="1000"
   height="1000"
   id="svg3266"
   version="1.1"
   inkscape:version="0.48.4 r9939"
   sodipodi:docname="ckhorr_p.svg">
  <defs
     id="defs3268" />
  <sodipodi:namedview
     id="base"
     pagecolor="#ffffff"
     bordercolor="#666666"
     borderopacity="1.0"
     inkscape:pageopacity="0.0"
     inkscape:pageshadow="2"
     inkscape:zoom="0.35"
     inkscape:cx="-402.14286"
     inkscape:cy="324.4742"
     inkscape:document-units="px"
     inkscape:current-layer="layer1"
     showgrid="false"
     showguides="true"
     inkscape:guide-bbox="true"
     inkscape:window-width="3759"
     inkscape:window-height="2136"
     inkscape:window-x="81"
     inkscape:window-y="24"
     inkscape:window-maximized="1">
    <inkscape:grid
       type="xygrid"
       id="grid3274"
       empspacing="5"
       visible="true"
       enabled="true"
       snapvisiblegridlinesonly="true" />
    <sodipodi:guide
       orientation="1,0"
       position="500,0"
       id="guide3284" />
    <sodipodi:guide
       orientation="0,1"
       position="500,930"
       id="guide3286" />
    <sodipodi:guide
       orientation="0,1"
       position="550,497.544"
       id="guide3288" />
    <sodipodi:guide
       orientation="0,1"
       position="500,100"
       id="guide3290" />
    <sodipodi:guide
       orientation="1,0"
       position="450,930"
       id="guide3292" />
    <sodipodi:guide
       orientation="1,0"
       position="550,930"
       id="guide3294" />
    <sodipodi:guide
       orientation="1,0"
       position="170,515"
       id="guide3361" />
    <sodipodi:guide
       orientation="1,0"
       position="830,515"
       id="guide3363" />
    <sodipodi:guide
       orientation="0,1"
       position="550,652.768"
       id="guide3447" />
    <sodipodi:guide
       orientation="0,1"
       position="450,377.232"
       id="guide3449" />
    <sodipodi:guide
       orientation="0,1"
       position="690.931,830"
       id="guide3497" />
    <sodipodi:guide
       orientation="0,1"
       position="309.069,200"
       id="guide3522" />
    <sodipodi:guide
       orientation="1,0"
       position="309.069,200"
       id="guide3524" />
    <sodipodi:guide
       orientation="1,0"
       position="690.931,830"
       id="guide3526" />
    <sodipodi:guide
       orientation="0,1"
       position="830,849.665"
       id="guide3699" />
    <sodipodi:guide
       orientation="0,1"
       position="450,532.456"
       id="guide3701" />
    <sodipodi:guide
       orientation="0,1"
       position="170,180.335"
       id="guide3703" />
    <sodipodi:guide
       orientation="1,0"
       position="565,737.14286"
       id="guide3778" />
    <sodipodi:guide
       orientation="1,0"
       position="520,737.14286"
       id="guide3780" />
    <sodipodi:guide
       orientation="1,0"
       position="480,652.768"
       id="guide3782" />
    <sodipodi:guide
       orientation="1,0"
       position="435,737.14286"
       id="guide3784" />
  </sodipodi:namedview>
  <metadata
     id="metadata3271">
    <rdf:RDF>
      <cc:Work
         rdf:about="">
        <dc:format>image/svg+xml</dc:format>
        <dc:type
           rdf:resource="http://purl.org/dc/dcmitype/StillImage" />
        <dc:title />
      </cc:Work>
    </rdf:RDF>
  </metadata>
  <g
     inkscape:label="Layer 1"
     inkscape:groupmode="layer"
     id="layer1"
     transform="translate(0,-52.362183)"
     style="fill:#000000;fill-opacity:1;stroke:none">
    <path
       style="fill:#000000;fill-opacity:1;stroke:none"
       d="m 170,122.36218 c 3.14596,28.49863 -6.53088,60.87689 5.27365,86.98125 C 261.8491,318.21427 348.42455,427.0851 435,535.95593 c 0,105.46875 0,210.9375 0,316.40625 -88.33333,0 -176.66667,0 -265,0 0,33.33333 0,66.66667 0,100 103.33333,0 206.66667,0 310,0 0,-276.66667 0,-553.33333 0,-830 -103.33333,0 -206.66667,0 -310,0 z m 350,0 c 0,276.66667 0,553.33333 0,830 103.33333,0 206.66667,0 310,0 -3.14596,-28.49862 6.53088,-60.87689 -5.27365,-86.98125 C 738.1509,756.51009 651.57545,647.63926 565,538.76843 c 0,-105.46875 0,-210.9375 0,-316.40625 88.33333,0 176.66667,0 265,0 0,-33.33333 0,-66.66667 0,-100 -103.33333,0 -206.66667,0 -310,0 z m -210.9375,100 c 41.97917,0 83.95833,0 125.9375,0 0,52.78125 0,105.5625 0,158.34375 C 393.02083,327.92468 351.04167,275.14343 309.0625,222.36218 z M 565,694.01843 c 41.97917,52.78125 83.95833,105.5625 125.9375,158.34375 -41.97917,0 -83.95833,0 -125.9375,0 0,-52.78125 0,-105.5625 0,-158.34375 z"
       id="path3786"
       inkscape:connector-curvature="0" />
  </g>
</svg>
