<?xml version="1.0" encoding="UTF-8" standalone="no"?>
<!-- Created with Inkscape (http://www.inkscape.org/) -->

<svg
   xmlns:dc="http://purl.org/dc/elements/1.1/"
   xmlns:cc="http://creativecommons.org/ns#"
   xmlns:rdf="http://www.w3.org/1999/02/22-rdf-syntax-ns#"
   xmlns:svg="http://www.w3.org/2000/svg"
   xmlns="http://www.w3.org/2000/svg"
   xmlns:sodipodi="http://sodipodi.sourceforge.net/DTD/sodipodi-0.dtd"
   xmlns:inkscape="http://www.inkscape.org/namespaces/inkscape"
   width="1000"
   height="1000"
   id="svg3266"
   version="1.1"
   inkscape:version="0.48.4 r9939"
   sodipodi:docname="djarr_p.svg">
  <defs
     id="defs3268" />
  <sodipodi:namedview
     id="base"
     pagecolor="#ffffff"
     bordercolor="#666666"
     borderopacity="1.0"
     inkscape:pageopacity="0.0"
     inkscape:pageshadow="2"
     inkscape:zoom="0.35"
     inkscape:cx="-402.14286"
     inkscape:cy="634.28571"
     inkscape:document-units="px"
     inkscape:current-layer="layer1"
     showgrid="false"
     showguides="true"
     inkscape:guide-bbox="true"
     inkscape:window-width="3759"
     inkscape:window-height="2136"
     inkscape:window-x="81"
     inkscape:window-y="24"
     inkscape:window-maximized="1">
    <inkscape:grid
       type="xygrid"
       id="grid3274"
       empspacing="5"
       visible="true"
       enabled="true"
       snapvisiblegridlinesonly="true" />
    <sodipodi:guide
       orientation="1,0"
       position="565,0"
       id="guide3284" />
    <sodipodi:guide
       orientation="0,1"
       position="500,930"
       id="guide3286" />
    <sodipodi:guide
       orientation="0,1"
       position="550,497.544"
       id="guide3288" />
    <sodipodi:guide
       orientation="0,1"
       position="500,100"
       id="guide3290" />
    <sodipodi:guide
       orientation="1,0"
       position="450,930"
       id="guide3292" />
    <sodipodi:guide
       orientation="1,0"
       position="550,930"
       id="guide3294" />
    <sodipodi:guide
       orientation="1,0"
       position="170,515"
       id="guide3361" />
    <sodipodi:guide
       orientation="1,0"
       position="830,515"
       id="guide3363" />
    <sodipodi:guide
       orientation="0,1"
       position="550,652.768"
       id="guide3447" />
    <sodipodi:guide
       orientation="0,1"
       position="450,377.232"
       id="guide3449" />
    <sodipodi:guide
       orientation="0,1"
       position="690.931,830"
       id="guide3497" />
    <sodipodi:guide
       orientation="0,1"
       position="309.069,200"
       id="guide3522" />
    <sodipodi:guide
       orientation="1,0"
       position="309.069,200"
       id="guide3524" />
    <sodipodi:guide
       orientation="1,0"
       position="690.931,830"
       id="guide3526" />
    <sodipodi:guide
       orientation="0,1"
       position="830,849.665"
       id="guide3699" />
    <sodipodi:guide
       orientation="0,1"
       position="450,532.456"
       id="guide3701" />
    <sodipodi:guide
       orientation="0,1"
       position="170,180.335"
       id="guide3703" />
    <sodipodi:guide
       orientation="1,0"
       position="520,742.85714"
       id="guide5142" />
    <sodipodi:guide
       orientation="1,0"
       position="480,742.85714"
       id="guide5144" />
    <sodipodi:guide
       orientation="1,0"
       position="435,742.85714"
       id="guide5146" />
  </sodipodi:namedview>
  <metadata
     id="metadata3271">
    <rdf:RDF>
      <cc:Work
         rdf:about="">
        <dc:format>image/svg+xml</dc:format>
        <dc:type
           rdf:resource="http://purl.org/dc/dcmitype/StillImage" />
        <dc:title />
      </cc:Work>
    </rdf:RDF>
  </metadata>
  <g
     inkscape:label="Layer 1"
     inkscape:groupmode="layer"
     id="layer1"
     transform="translate(0,-52.362183)"
     style="fill:#000000;fill-opacity:1;stroke:none">
    <path
       style="fill:#000000;fill-opacity:1;stroke:none"
       d="m 435,122.36218 c 0,138.80208 0,277.60417 0,416.40625 -88.33333,111.08333 -176.66667,222.16667 -265,333.25 0,26.78125 0,53.5625 0,80.34375 103.33333,0 206.66667,0 310,0 0,-276.66667 0,-553.33333 0,-830 -15,0 -30,0 -45,0 z m 85,0 c 0,276.66667 0,553.33333 0,830 15,0 30,0 45,0 0,-138.80208 0,-277.60417 0,-416.40625 88.33333,-111.08333 176.66667,-222.16667 265,-333.25 0,-26.78125 0,-53.5625 0,-80.34375 -103.33333,0 -206.66667,0 -310,0 z m 45,100 c 41.97917,0 83.95833,0 125.9375,0 -41.97917,52.78125 -83.95833,105.5625 -125.9375,158.34375 0,-52.78125 0,-105.5625 0,-158.34375 z M 435,694.01843 c 0,52.78125 0,105.5625 0,158.34375 -41.97917,0 -83.95833,0 -125.9375,0 C 351.04167,799.58093 393.02083,746.79968 435,694.01843 z"
       id="path5148"
       inkscape:connector-curvature="0" />
  </g>
</svg>
