<?xml version="1.0" encoding="UTF-8" standalone="no"?>
<!-- Created with Inkscape (http://www.inkscape.org/) -->

<svg
   xmlns:dc="http://purl.org/dc/elements/1.1/"
   xmlns:cc="http://creativecommons.org/ns#"
   xmlns:rdf="http://www.w3.org/1999/02/22-rdf-syntax-ns#"
   xmlns:svg="http://www.w3.org/2000/svg"
   xmlns="http://www.w3.org/2000/svg"
   xmlns:sodipodi="http://sodipodi.sourceforge.net/DTD/sodipodi-0.dtd"
   xmlns:inkscape="http://www.inkscape.org/namespaces/inkscape"
   width="1000"
   height="1000"
   id="svg3266"
   version="1.1"
   inkscape:version="0.48.4 r9939"
   sodipodi:docname="harr.svg">
  <defs
     id="defs3268" />
  <sodipodi:namedview
     id="base"
     pagecolor="#ffffff"
     bordercolor="#666666"
     borderopacity="1.0"
     inkscape:pageopacity="0.0"
     inkscape:pageshadow="2"
     inkscape:zoom="1.4"
     inkscape:cx="288.55605"
     inkscape:cy="504.57537"
     inkscape:document-units="px"
     inkscape:current-layer="layer1"
     showgrid="false"
     showguides="true"
     inkscape:guide-bbox="true"
     inkscape:window-width="3759"
     inkscape:window-height="2136"
     inkscape:window-x="81"
     inkscape:window-y="24"
     inkscape:window-maximized="1">
    <inkscape:grid
       type="xygrid"
       id="grid3274"
       empspacing="5"
       visible="true"
       enabled="true"
       snapvisiblegridlinesonly="true" />
    <sodipodi:guide
       orientation="1,0"
       position="500,0"
       id="guide3284" />
    <sodipodi:guide
       orientation="0,1"
       position="500,930"
       id="guide3286" />
    <sodipodi:guide
       orientation="0,1"
       position="500,515"
       id="guide3288" />
    <sodipodi:guide
       orientation="0,1"
       position="500,100"
       id="guide3290" />
    <sodipodi:guide
       orientation="1,0"
       position="450,787.85714"
       id="guide3292" />
    <sodipodi:guide
       orientation="1,0"
       position="550,930"
       id="guide3294" />
    <sodipodi:guide
       orientation="0,1"
       position="500,725"
       id="guide3349" />
    <sodipodi:guide
       orientation="0,1"
       position="500,305"
       id="guide3351" />
    <sodipodi:guide
       orientation="1,0"
       position="170,515"
       id="guide3361" />
    <sodipodi:guide
       orientation="1,0"
       position="830,515"
       id="guide3363" />
    <sodipodi:guide
       orientation="0,1"
       position="500,600"
       id="guide3367" />
    <sodipodi:guide
       orientation="0,1"
       position="500,430"
       id="guide3369" />
    <sodipodi:guide
       orientation="1,0"
       position="336.667,515"
       id="guide3371" />
    <sodipodi:guide
       orientation="1,0"
       position="663.333,515"
       id="guide3373" />
  </sodipodi:namedview>
  <metadata
     id="metadata3271">
    <rdf:RDF>
      <cc:Work
         rdf:about="">
        <dc:format>image/svg+xml</dc:format>
        <dc:type
           rdf:resource="http://purl.org/dc/dcmitype/StillImage" />
        <dc:title />
      </cc:Work>
    </rdf:RDF>
  </metadata>
  <g
     inkscape:label="Layer 1"
     inkscape:groupmode="layer"
     id="layer1"
     transform="translate(0,-52.362183)">
    <path
       style="fill:#000000;fill-opacity:1;stroke:none"
       d="m 450,122.36218 c 0,68.33333 0,136.66667 0,205 -93.33333,70 -186.66667,140 -280,210 93.33333,70 186.66667,140 280,210 0,68.33333 0,136.66667 0,205 33.33333,0 66.66667,0 100,0 0,-68.33333 0,-136.66667 0,-205 93.33333,-70 186.66667,-140 280,-210 -93.33333,-70 -186.66667,-140 -280,-210 0,-68.33333 0,-136.66667 0,-205 -33.33333,0 -66.66667,0 -100,0 z m 0,330 c 0,56.66667 0,113.33333 0,170 -37.78125,-28.33333 -75.5625,-56.66667 -113.34375,-85 37.78125,-28.33333 75.5625,-56.66667 113.34375,-85 z m 100,0 c 37.78125,28.33333 75.5625,56.66667 113.34375,85 -37.78125,28.33333 -75.5625,56.66667 -113.34375,85 0,-56.66667 0,-113.33333 0,-170 z"
       id="path3375"
       inkscape:connector-curvature="0" />
  </g>
</svg>
