<?xml version="1.0" encoding="UTF-8" standalone="no"?>
<!-- Created with Inkscape (http://www.inkscape.org/) -->

<svg
   xmlns:dc="http://purl.org/dc/elements/1.1/"
   xmlns:cc="http://creativecommons.org/ns#"
   xmlns:rdf="http://www.w3.org/1999/02/22-rdf-syntax-ns#"
   xmlns:svg="http://www.w3.org/2000/svg"
   xmlns="http://www.w3.org/2000/svg"
   xmlns:sodipodi="http://sodipodi.sourceforge.net/DTD/sodipodi-0.dtd"
   xmlns:inkscape="http://www.inkscape.org/namespaces/inkscape"
   width="1000"
   height="1000"
   id="svg3266"
   version="1.1"
   inkscape:version="0.48.4 r9939"
   sodipodi:docname="ja_p.svg">
  <defs
     id="defs3268" />
  <sodipodi:namedview
     id="base"
     pagecolor="#ffffff"
     bordercolor="#666666"
     borderopacity="1.0"
     inkscape:pageopacity="0.0"
     inkscape:pageshadow="2"
     inkscape:zoom="0.35"
     inkscape:cx="-402.14286"
     inkscape:cy="324.4742"
     inkscape:document-units="px"
     inkscape:current-layer="layer1"
     showgrid="false"
     showguides="true"
     inkscape:guide-bbox="true"
     inkscape:window-width="3759"
     inkscape:window-height="2136"
     inkscape:window-x="81"
     inkscape:window-y="24"
     inkscape:window-maximized="1">
    <inkscape:grid
       type="xygrid"
       id="grid3274"
       empspacing="5"
       visible="true"
       enabled="true"
       snapvisiblegridlinesonly="true" />
    <sodipodi:guide
       orientation="1,0"
       position="565,0"
       id="guide3284" />
    <sodipodi:guide
       orientation="0,1"
       position="500,930"
       id="guide3286" />
    <sodipodi:guide
       orientation="0,1"
       position="550,497.544"
       id="guide3288" />
    <sodipodi:guide
       orientation="0,1"
       position="500,100"
       id="guide3290" />
    <sodipodi:guide
       orientation="1,0"
       position="450,930"
       id="guide3292" />
    <sodipodi:guide
       orientation="1,0"
       position="550,930"
       id="guide3294" />
    <sodipodi:guide
       orientation="1,0"
       position="170,515"
       id="guide3361" />
    <sodipodi:guide
       orientation="1,0"
       position="830,515"
       id="guide3363" />
    <sodipodi:guide
       orientation="0,1"
       position="550,597.544"
       id="guide3447" />
    <sodipodi:guide
       orientation="0,1"
       position="309.069,255.224"
       id="guide3522" />
    <sodipodi:guide
       orientation="1,0"
       position="309.069,200"
       id="guide3524" />
    <sodipodi:guide
       orientation="1,0"
       position="690.931,830"
       id="guide3526" />
    <sodipodi:guide
       orientation="0,1"
       position="830,774.776"
       id="guide3699" />
    <sodipodi:guide
       orientation="0,1"
       position="450,577.879"
       id="guide3701" />
    <sodipodi:guide
       orientation="1,0"
       position="520,357.14286"
       id="guide5263" />
    <sodipodi:guide
       orientation="1,0"
       position="480,357.14286"
       id="guide5265" />
    <sodipodi:guide
       orientation="1,0"
       position="435,357.14286"
       id="guide5267" />
  </sodipodi:namedview>
  <metadata
     id="metadata3271">
    <rdf:RDF>
      <cc:Work
         rdf:about="">
        <dc:format>image/svg+xml</dc:format>
        <dc:type
           rdf:resource="http://purl.org/dc/dcmitype/StillImage" />
        <dc:title />
      </cc:Work>
    </rdf:RDF>
  </metadata>
  <g
     inkscape:label="Layer 1"
     inkscape:groupmode="layer"
     id="layer1"
     transform="translate(0,-52.362183)"
     style="fill:#000000;fill-opacity:1;stroke:none">
    <path
       style="fill:#000000;fill-opacity:1;stroke:none"
       d="m 435,122.36218 c 2.8525,14.35707 -3.05594,25.6554 -13.20018,35.47485 C 337.86654,263.38708 253.93327,368.93713 170,474.48718 c 0,26.78125 0,53.5625 0,80.34375 88.33333,0 176.66667,0 265,0 0,132.51042 0,265.02083 0,397.53125 15,0 30,0 45,0 0,-276.66667 0,-553.33333 0,-830 -15,0 -30,0 -45,0 z m 85,0 c 0,276.66667 0,553.33333 0,830 15,0 30,0 45,0 0,-132.51042 0,-265.02083 0,-397.53125 88.33333,0 176.66667,0 265,0 -0.88165,-27.18039 1.76238,-55.59171 -1.32002,-82.00374 C 740.78665,362.29719 652.89333,251.76718 565,141.23718 c 4.58307,-17.94423 -4.90992,-21.8124 -21.20849,-18.875 -7.9305,0 -15.86101,0 -23.79151,0 z m -85,174.09375 c 0,52.79167 0,105.58333 0,158.375 -41.97917,0 -83.95833,0 -125.9375,0 C 351.04167,402.03926 393.02083,349.2476 435,296.45593 z m 130,0 c 41.97917,52.79167 83.95833,105.58333 125.9375,158.375 -41.97917,0 -83.95833,0 -125.9375,0 0,-52.79167 0,-105.58333 0,-158.375 z"
       id="path5269"
       inkscape:connector-curvature="0" />
  </g>
</svg>
