<?xml version="1.0" encoding="UTF-8" standalone="no"?>
<!-- Created with Inkscape (http://www.inkscape.org/) -->

<svg
   xmlns:dc="http://purl.org/dc/elements/1.1/"
   xmlns:cc="http://creativecommons.org/ns#"
   xmlns:rdf="http://www.w3.org/1999/02/22-rdf-syntax-ns#"
   xmlns:svg="http://www.w3.org/2000/svg"
   xmlns="http://www.w3.org/2000/svg"
   xmlns:sodipodi="http://sodipodi.sourceforge.net/DTD/sodipodi-0.dtd"
   xmlns:inkscape="http://www.inkscape.org/namespaces/inkscape"
   width="1000"
   height="1000"
   id="svg3266"
   version="1.1"
   inkscape:version="0.48.4 r9939"
   sodipodi:docname="roo.svg">
  <defs
     id="defs3268" />
  <sodipodi:namedview
     id="base"
     pagecolor="#ffffff"
     bordercolor="#666666"
     borderopacity="1.0"
     inkscape:pageopacity="0.0"
     inkscape:pageshadow="2"
     inkscape:zoom="0.35"
     inkscape:cx="-402.14286"
     inkscape:cy="324.4742"
     inkscape:document-units="px"
     inkscape:current-layer="layer1"
     showgrid="false"
     showguides="true"
     inkscape:guide-bbox="true"
     inkscape:window-width="3759"
     inkscape:window-height="2136"
     inkscape:window-x="81"
     inkscape:window-y="24"
     inkscape:window-maximized="1">
    <inkscape:grid
       type="xygrid"
       id="grid3274"
       empspacing="5"
       visible="true"
       enabled="true"
       snapvisiblegridlinesonly="true" />
    <sodipodi:guide
       orientation="1,0"
       position="500,0"
       id="guide3284" />
    <sodipodi:guide
       orientation="0,1"
       position="500,930"
       id="guide3286" />
    <sodipodi:guide
       orientation="0,1"
       position="550,432.456"
       id="guide3288" />
    <sodipodi:guide
       orientation="0,1"
       position="500,100"
       id="guide3290" />
    <sodipodi:guide
       orientation="1,0"
       position="450,930"
       id="guide3292" />
    <sodipodi:guide
       orientation="1,0"
       position="550,930"
       id="guide3294" />
    <sodipodi:guide
       orientation="1,0"
       position="170,515"
       id="guide3361" />
    <sodipodi:guide
       orientation="1,0"
       position="830,515"
       id="guide3363" />
    <sodipodi:guide
       orientation="0,1"
       position="550,552.121"
       id="guide3447" />
    <sodipodi:guide
       orientation="0,1"
       position="309.069,255.224"
       id="guide3522" />
    <sodipodi:guide
       orientation="1,0"
       position="309.069,200"
       id="guide3524" />
    <sodipodi:guide
       orientation="1,0"
       position="690.931,830"
       id="guide3526" />
    <sodipodi:guide
       orientation="0,1"
       position="830,774.776"
       id="guide3699" />
    <sodipodi:guide
       orientation="0,1"
       position="450,452.121"
       id="guide3701" />
  </sodipodi:namedview>
  <metadata
     id="metadata3271">
    <rdf:RDF>
      <cc:Work
         rdf:about="">
        <dc:format>image/svg+xml</dc:format>
        <dc:type
           rdf:resource="http://purl.org/dc/dcmitype/StillImage" />
        <dc:title />
      </cc:Work>
    </rdf:RDF>
  </metadata>
  <g
     inkscape:label="Layer 1"
     inkscape:groupmode="layer"
     id="layer1"
     transform="translate(0,-52.362183)"
     style="fill:#000000;fill-opacity:1;stroke:none">
    <path
       style="fill:#000000;fill-opacity:1;stroke:none"
       d="m 450,122.36218 c 0,125.95833 0,251.91667 0,377.875 -93.33333,0 -186.66667,0 -280,0 0,33.33333 0,66.66667 0,100 93.33333,117.375 186.66667,234.75 280,352.125 33.33333,0 66.66667,0 100,0 93.33333,-117.375 186.66667,-234.75 280,-352.125 0,-33.33333 0,-66.66667 0,-100 -93.33333,0 -186.66667,0 -280,0 0,-125.95833 0,-251.91667 0,-377.875 -33.33333,0 -66.66667,0 -100,0 z M 309.0625,619.89343 c 46.97917,0 93.95833,0 140.9375,0 0,59.08333 0,118.16667 0,177.25 -46.97917,-59.08333 -93.95833,-118.16667 -140.9375,-177.25 z m 240.9375,0 c 46.97917,0 93.95833,0 140.9375,0 -46.97917,59.08333 -93.95833,118.16667 -140.9375,177.25 0,-59.08333 0,-118.16667 0,-177.25 z"
       id="path3921"
       inkscape:connector-curvature="0" />
  </g>
</svg>
