<?xml version="1.0" encoding="UTF-8" standalone="no"?>
<!-- Created with Inkscape (http://www.inkscape.org/) -->

<svg
   xmlns:dc="http://purl.org/dc/elements/1.1/"
   xmlns:cc="http://creativecommons.org/ns#"
   xmlns:rdf="http://www.w3.org/1999/02/22-rdf-syntax-ns#"
   xmlns:svg="http://www.w3.org/2000/svg"
   xmlns="http://www.w3.org/2000/svg"
   xmlns:sodipodi="http://sodipodi.sourceforge.net/DTD/sodipodi-0.dtd"
   xmlns:inkscape="http://www.inkscape.org/namespaces/inkscape"
   width="1000"
   height="1000"
   id="svg3266"
   version="1.1"
   inkscape:version="0.48.4 r9939"
   sodipodi:docname="thorr_p.svg">
  <defs
     id="defs3268" />
  <sodipodi:namedview
     id="base"
     pagecolor="#ffffff"
     bordercolor="#666666"
     borderopacity="1.0"
     inkscape:pageopacity="0.0"
     inkscape:pageshadow="2"
     inkscape:zoom="0.35"
     inkscape:cx="-402.14286"
     inkscape:cy="324.4742"
     inkscape:document-units="px"
     inkscape:current-layer="layer1"
     showgrid="false"
     showguides="true"
     inkscape:guide-bbox="true"
     inkscape:window-width="3759"
     inkscape:window-height="2136"
     inkscape:window-x="81"
     inkscape:window-y="24"
     inkscape:window-maximized="1">
    <inkscape:grid
       type="xygrid"
       id="grid3274"
       empspacing="5"
       visible="true"
       enabled="true"
       snapvisiblegridlinesonly="true" />
    <sodipodi:guide
       orientation="1,0"
       position="400,0"
       id="guide3284" />
    <sodipodi:guide
       orientation="0,1"
       position="500,930"
       id="guide3286" />
    <sodipodi:guide
       orientation="0,1"
       position="550,465"
       id="guide3288" />
    <sodipodi:guide
       orientation="0,1"
       position="500,100"
       id="guide3290" />
    <sodipodi:guide
       orientation="1,0"
       position="745,930"
       id="guide3292" />
    <sodipodi:guide
       orientation="1,0"
       position="500,930"
       id="guide3294" />
    <sodipodi:guide
       orientation="1,0"
       position="170,515"
       id="guide3361" />
    <sodipodi:guide
       orientation="1,0"
       position="830,515"
       id="guide3363" />
    <sodipodi:guide
       orientation="0,1"
       position="550,565"
       id="guide3447" />
    <sodipodi:guide
       orientation="0,1"
       position="500,200"
       id="guide3522" />
    <sodipodi:guide
       orientation="1,0"
       position="700,200"
       id="guide3524" />
    <sodipodi:guide
       orientation="1,0"
       position="785,-245.71429"
       id="guide3526" />
    <sodipodi:guide
       orientation="0,1"
       position="830,830"
       id="guide3699" />
    <sodipodi:guide
       orientation="0,1"
       position="450,515"
       id="guide3701" />
  </sodipodi:namedview>
  <metadata
     id="metadata3271">
    <rdf:RDF>
      <cc:Work
         rdf:about="">
        <dc:format>image/svg+xml</dc:format>
        <dc:type
           rdf:resource="http://purl.org/dc/dcmitype/StillImage" />
        <dc:title />
      </cc:Work>
    </rdf:RDF>
  </metadata>
  <g
     inkscape:label="Layer 1"
     inkscape:groupmode="layer"
     id="layer1"
     transform="translate(0,-52.362183)"
     style="fill:#000000;fill-opacity:1;stroke:none">
    <path
       style="fill:#000000;fill-opacity:1;stroke:none"
       d="m 170,122.36218 c 0,33.33333 0,66.66667 0,100 76.66667,0 153.33333,0 230,0 0,121.66667 0,243.33333 0,365 100,0 200,0 300,0 0,121.66667 0,243.33333 0,365 15,0 30,0 45,0 0,-276.66667 0,-553.33333 0,-830 -15,0 -30,0 -45,0 0,121.66667 0,243.33333 0,365 -66.66667,0 -133.33333,0 -200,0 0,-121.66667 0,-243.33333 0,-365 -110,0 -220,0 -330,0 z m 615,0 c 0,276.66667 0,553.33333 0,830 15,0 30,0 45,0 0,-276.66667 0,-553.33333 0,-830 -15,0 -30,0 -45,0 z"
       id="path4577"
       inkscape:connector-curvature="0" />
  </g>
</svg>
