<?xml version="1.0" encoding="UTF-8" standalone="no"?>
<!-- Created with Inkscape (http://www.inkscape.org/) -->

<svg
   xmlns:dc="http://purl.org/dc/elements/1.1/"
   xmlns:cc="http://creativecommons.org/ns#"
   xmlns:rdf="http://www.w3.org/1999/02/22-rdf-syntax-ns#"
   xmlns:svg="http://www.w3.org/2000/svg"
   xmlns="http://www.w3.org/2000/svg"
   xmlns:sodipodi="http://sodipodi.sourceforge.net/DTD/sodipodi-0.dtd"
   xmlns:inkscape="http://www.inkscape.org/namespaces/inkscape"
   width="1000"
   height="1000"
   id="svg3266"
   version="1.1"
   inkscape:version="0.48.4 r9939"
   sodipodi:docname="torr_p.svg">
  <defs
     id="defs3268" />
  <sodipodi:namedview
     id="base"
     pagecolor="#ffffff"
     bordercolor="#666666"
     borderopacity="1.0"
     inkscape:pageopacity="0.0"
     inkscape:pageshadow="2"
     inkscape:zoom="0.49497475"
     inkscape:cx="-122.9073"
     inkscape:cy="363.71858"
     inkscape:document-units="px"
     inkscape:current-layer="layer1"
     showgrid="false"
     showguides="true"
     inkscape:guide-bbox="true"
     inkscape:window-width="3759"
     inkscape:window-height="2136"
     inkscape:window-x="81"
     inkscape:window-y="24"
     inkscape:window-maximized="1">
    <inkscape:grid
       type="xygrid"
       id="grid3274"
       empspacing="5"
       visible="true"
       enabled="true"
       snapvisiblegridlinesonly="true" />
    <sodipodi:guide
       orientation="1,0"
       position="550,0"
       id="guide3284" />
    <sodipodi:guide
       orientation="0,1"
       position="500,930"
       id="guide3286" />
    <sodipodi:guide
       orientation="0,1"
       position="550,390.534"
       id="guide3288" />
    <sodipodi:guide
       orientation="0,1"
       position="500,100"
       id="guide3290" />
    <sodipodi:guide
       orientation="1,0"
       position="520,930"
       id="guide3292" />
    <sodipodi:guide
       orientation="1,0"
       position="565,930"
       id="guide3294" />
    <sodipodi:guide
       orientation="1,0"
       position="435,515"
       id="guide3361" />
    <sodipodi:guide
       orientation="1,0"
       position="830,515"
       id="guide3363" />
    <sodipodi:guide
       orientation="0,1"
       position="550,639.466"
       id="guide3447" />
    <sodipodi:guide
       orientation="0,1"
       position="500,224.466"
       id="guide3522" />
    <sodipodi:guide
       orientation="1,0"
       position="480,515"
       id="guide3524" />
    <sodipodi:guide
       orientation="1,0"
       position="662.045,515"
       id="guide3526" />
    <sodipodi:guide
       orientation="0,1"
       position="830,722.5"
       id="guide3699" />
    <sodipodi:guide
       orientation="0,1"
       position="450,515"
       id="guide3701" />
    <sodipodi:guide
       orientation="0,1"
       position="500,307.5"
       id="guide4011" />
    <sodipodi:guide
       orientation="0,1"
       position="500,805.534"
       id="guide4013" />
  </sodipodi:namedview>
  <metadata
     id="metadata3271">
    <rdf:RDF>
      <cc:Work
         rdf:about="">
        <dc:format>image/svg+xml</dc:format>
        <dc:type
           rdf:resource="http://purl.org/dc/dcmitype/StillImage" />
        <dc:title />
      </cc:Work>
    </rdf:RDF>
  </metadata>
  <g
     inkscape:label="Layer 1"
     inkscape:groupmode="layer"
     id="layer1"
     transform="translate(0,-52.362183)"
     style="fill:#000000;fill-opacity:1;stroke:none">
    <path
       style="fill:#000000;fill-opacity:1;stroke:none"
       d="m 435,122.36218 c 0,276.66667 0,553.33333 0,830 15,0 30,0 45,0 0,-276.66667 0,-553.33333 0,-830 -15,0 -30,0 -45,0 z m 85,0 c 0,276.66667 0,553.33333 0,830 15,0 30,0 45,0 -4.35599,-13.25562 9.73214,-17.22268 17.72456,-24.25957 C 665.14971,867.02247 747.57485,805.94232 830,744.86218 741.66667,679.40385 653.33333,613.94551 565,548.48718 565.95082,537.87256 560.6237,524.09633 573.86228,519.6699 659.24152,456.40066 744.62076,393.13142 830,329.86218 741.66667,264.40385 653.33333,198.94551 565,133.48718 c 5.42165,-16.48357 -12.11304,-10.01079 -22.06075,-11.125 -7.64642,0 -15.29283,0 -22.93925,0 z m 45,135.59375 c 32.34375,23.96875 64.6875,47.9375 97.03125,71.90625 -32.34375,23.96875 -64.6875,47.9375 -97.03125,71.90625 0,-47.9375 0,-95.875 0,-143.8125 z m 0,415 c 32.34375,23.96875 64.6875,47.9375 97.03125,71.90625 -32.34375,23.96875 -64.6875,47.9375 -97.03125,71.90625 0,-47.9375 0,-95.875 0,-143.8125 z"
       id="path4123"
       inkscape:connector-curvature="0" />
  </g>
</svg>
