<?xml version="1.0" encoding="UTF-8" standalone="no"?>
<!-- Created with Inkscape (http://www.inkscape.org/) -->

<svg
   xmlns:dc="http://purl.org/dc/elements/1.1/"
   xmlns:cc="http://creativecommons.org/ns#"
   xmlns:rdf="http://www.w3.org/1999/02/22-rdf-syntax-ns#"
   xmlns:svg="http://www.w3.org/2000/svg"
   xmlns="http://www.w3.org/2000/svg"
   xmlns:sodipodi="http://sodipodi.sourceforge.net/DTD/sodipodi-0.dtd"
   xmlns:inkscape="http://www.inkscape.org/namespaces/inkscape"
   width="1000"
   height="1000"
   id="svg3266"
   version="1.1"
   inkscape:version="0.48.4 r9939"
   sodipodi:docname="varr_p.svg">
  <defs
     id="defs3268" />
  <sodipodi:namedview
     id="base"
     pagecolor="#ffffff"
     bordercolor="#666666"
     borderopacity="1.0"
     inkscape:pageopacity="0.0"
     inkscape:pageshadow="2"
     inkscape:zoom="0.98994949"
     inkscape:cx="174.56412"
     inkscape:cy="453.21983"
     inkscape:document-units="px"
     inkscape:current-layer="layer1"
     showgrid="false"
     showguides="true"
     inkscape:guide-bbox="true"
     inkscape:window-width="3759"
     inkscape:window-height="2136"
     inkscape:window-x="81"
     inkscape:window-y="24"
     inkscape:window-maximized="1">
    <inkscape:grid
       type="xygrid"
       id="grid3274"
       empspacing="5"
       visible="true"
       enabled="true"
       snapvisiblegridlinesonly="true" />
    <sodipodi:guide
       orientation="1,0"
       position="550,0"
       id="guide3284" />
    <sodipodi:guide
       orientation="0,1"
       position="500,930"
       id="guide3286" />
    <sodipodi:guide
       orientation="0,1"
       position="550,390.534"
       id="guide3288" />
    <sodipodi:guide
       orientation="0,1"
       position="500,100"
       id="guide3290" />
    <sodipodi:guide
       orientation="1,0"
       position="450,930"
       id="guide3292" />
    <sodipodi:guide
       orientation="1,0"
       position="500,930"
       id="guide3294" />
    <sodipodi:guide
       orientation="1,0"
       position="170,515"
       id="guide3361" />
    <sodipodi:guide
       orientation="1,0"
       position="830,515"
       id="guide3363" />
    <sodipodi:guide
       orientation="0,1"
       position="550,639.466"
       id="guide3447" />
    <sodipodi:guide
       orientation="0,1"
       position="500,224.466"
       id="guide3522" />
    <sodipodi:guide
       orientation="1,0"
       position="337.955,515"
       id="guide3524" />
    <sodipodi:guide
       orientation="1,0"
       position="662.045,515"
       id="guide3526" />
    <sodipodi:guide
       orientation="0,1"
       position="830,722.5"
       id="guide3699" />
    <sodipodi:guide
       orientation="0,1"
       position="450,515"
       id="guide3701" />
    <sodipodi:guide
       orientation="0,1"
       position="500,307.5"
       id="guide4011" />
    <sodipodi:guide
       orientation="0,1"
       position="500,805.534"
       id="guide4013" />
    <sodipodi:guide
       orientation="1,0"
       position="565,390.534"
       id="guide3064" />
    <sodipodi:guide
       orientation="1,0"
       position="520,390.534"
       id="guide3066" />
    <sodipodi:guide
       orientation="1,0"
       position="480,515"
       id="guide3068" />
    <sodipodi:guide
       orientation="1,0"
       position="435,515"
       id="guide3070" />
  </sodipodi:namedview>
  <metadata
     id="metadata3271">
    <rdf:RDF>
      <cc:Work
         rdf:about="">
        <dc:format>image/svg+xml</dc:format>
        <dc:type
           rdf:resource="http://purl.org/dc/dcmitype/StillImage" />
        <dc:title />
      </cc:Work>
    </rdf:RDF>
  </metadata>
  <g
     inkscape:label="Layer 1"
     inkscape:groupmode="layer"
     id="layer1"
     transform="translate(0,-52.362183)"
     style="fill:#000000;fill-opacity:1;stroke:none">
    <path
       style="fill:#000000;fill-opacity:1;stroke:none"
       d="m 435,122.36218 c 4.35599,13.25562 -9.73214,17.22268 -17.72456,24.25957 C 334.85029,207.70189 252.42515,268.78204 170,329.86218 c 88.33333,65.45833 176.66667,130.91667 265,196.375 -0.95082,10.61462 4.3763,24.39085 -8.86228,28.81728 C 340.75848,618.3237 255.37924,681.59294 170,744.86218 c 88.33333,65.45833 176.66667,130.91667 265,196.375 -5.42165,16.48357 12.11304,10.0108 22.06075,11.125 10.05596,-1.26725 28.18632,5.5399 22.93925,-11.03038 0,-272.98987 0,-545.97975 0,-818.96962 -15,0 -30,0 -45,0 z m 85,0 c 0,276.66667 0,553.33333 0,830 15,0 30,0 45,0 0,-276.66667 0,-553.33333 0,-830 -15,0 -30,0 -45,0 z m -85,135.59375 c 0,47.9375 0,95.875 0,143.8125 -32.34375,-23.96875 -64.6875,-47.9375 -97.03125,-71.90625 32.34375,-23.96875 64.6875,-47.9375 97.03125,-71.90625 z m 0,415 c 0,47.9375 0,95.875 0,143.8125 -32.34375,-23.96875 -64.6875,-47.9375 -97.03125,-71.90625 32.34375,-23.96875 64.6875,-47.9375 97.03125,-71.90625 z"
       id="path3078"
       inkscape:connector-curvature="0" />
  </g>
</svg>
